<svg width="167" height="167" viewBox="0 0 167 167" fill="none" xmlns="http://www.w3.org/2000/svg">
<path d="M43.0933 49.2535C39.9932 48.9825 33.793 46.8149 33.793 40.3121C33.793 33.8093 39.212 34.3512 41.9215 35.435C45.0833 36.2973 50.0498 31.5628 53.5554 27.4985C59.2454 22.4294 75.8439 27.1151 80.3795 24.2425C91.2005 17.3888 80.9891 -2.25489 61.6839 2.29707C58.2462 3.38064 51.9297 6.36449 50.304 12.8666C35.6727 3.11238 7.87322 29.7739 26.7313 61.6376C23.2132 64.6181 17.5574 72.5298 23.0798 80.3332C31.3499 77.2469 38.87 76.334 40.2956 75.2648C42.8967 73.3139 43.2445 57.111 43.0933 49.2535Z" fill="black"/>
<path d="M40.2956 75.2648C38.87 76.334 31.3499 77.2469 23.0798 80.3332C14.6985 83.4609 0.494641 127.475 1.53305 144.545L31.6085 131.54C36.4016 132.667 43.2715 131.187 50.3045 128.663C44.0053 126.361 46.596 117.158 48.6788 112.844C57.7827 112.844 68.1872 102.006 72.2515 96.5871L74.4355 95.5484C70.5339 82.0431 83.2753 88.3708 90.1337 95.5484C95.4368 100.756 98.6982 115.053 76.6612 134.747C86.7915 126.632 97.146 119.911 104.711 114.657C108.567 111.98 111.699 109.683 113.706 107.779C87.0442 74.4639 73.8772 77.0787 63.0556 77.7033C48.7494 90.5559 41.9213 81.4329 40.2956 75.2648Z" fill="black"/>
<path d="M20.2285 157.551H42.1754C44.7357 140.36 57.006 151.65 70.8404 139.602C68.7732 141.219 66.5377 142.867 64.1225 144.545C46.6071 156.716 31.3141 159.395 20.2285 157.751V157.551Z" fill="black"/>
<path d="M70.8404 139.602C57.006 151.65 44.7357 140.36 42.1754 157.551H87.6413C83.757 147.12 88.9673 153.427 95.2875 136.553C98.49 128.003 101.977 120.18 104.711 114.657C97.146 119.911 86.7915 126.632 76.6612 134.747C74.8886 136.331 72.9524 137.95 70.8404 139.602Z" fill="black"/>
<path d="M119.342 125.173C112.056 121.272 106.552 116.537 104.711 114.657C101.977 120.18 98.49 128.003 95.2875 136.553L119.342 125.173Z" fill="black"/>
<path fill-rule="evenodd" clip-rule="evenodd" d="M81.3551 24.5653C83.9262 22.7283 85.2794 20.1479 85.5473 17.3597C85.8314 14.4033 84.8942 11.259 82.9965 8.52871C79.1863 3.047 71.464 -0.844154 61.4973 1.50588L61.4682 1.51276L61.4395 1.52178C58.1313 2.56455 51.935 5.41137 49.8231 11.6237C46.0915 9.56474 41.7127 9.56655 37.5128 11.1293C32.9641 12.8219 28.5789 16.3546 25.2873 21.1878C18.7636 30.7669 16.4995 45.4972 25.6935 61.472C23.9395 63.0974 21.8592 65.7321 20.7481 68.9084C19.5912 72.2156 19.4863 76.1245 21.8987 80.022C20.9364 80.6257 19.9864 81.598 19.0621 82.7927C17.8321 84.3825 16.5681 86.4724 15.3089 88.9126C12.7889 93.7959 10.2447 100.167 8.00219 106.956C5.75865 113.748 3.8097 120.979 2.48599 127.591C1.16519 134.188 0.455655 140.221 0.721692 144.595C0.900594 147.534 2.91723 150.605 6.22498 153.119C9.55458 155.649 14.2817 157.69 20.1091 158.555C24.2621 159.171 28.9759 159.191 34.1512 158.364H113.706V156.738H88.2086C87.3825 154.454 87.0888 153.163 87.1208 152.272C87.1515 151.419 87.4809 150.882 88.2493 150.004C88.3998 149.832 88.5655 149.649 88.7446 149.451C89.4875 148.63 90.4626 147.553 91.5533 145.942C92.8778 143.985 94.3747 141.245 95.932 137.148L119.333 126.077C121.29 126.989 123.344 126.902 125.329 126.199C127.421 125.459 129.469 124.027 131.354 122.309C135.12 118.875 138.407 114.137 140.29 110.818C142.356 107.442 145.408 102.011 147.866 96.661C149.097 93.9837 150.186 91.3106 150.928 88.9162C151.522 87.0007 151.913 85.2014 151.946 83.6976C153.28 83.7752 154.334 83.4265 155.126 82.8628C156.026 82.2218 156.528 81.3437 156.73 80.6526C157.956 78.5751 159.841 75.2859 161.588 72.0406C163.351 68.7664 165.009 65.4737 165.684 63.5264C166.426 61.3863 165.965 59.6383 165.049 58.3564C164.198 57.1639 162.978 56.403 162.061 56.0387C160.868 55.1597 157.898 53.237 154.651 51.9384C152.834 51.2116 151.315 51.34 150.15 51.8726C149.015 52.3914 148.277 53.2658 147.932 53.9553L147.922 53.9767L145.725 59.1017C143.986 58.9438 142.511 59.8732 141.342 61.2079C140.027 62.7088 138.97 64.8501 138.144 67.0446C137.313 69.2532 136.693 71.5822 136.281 73.5107C135.913 75.2283 135.698 76.686 135.66 77.471C132.825 82.2811 128.354 89.448 124.02 95.5461C121.824 98.6353 119.675 101.433 117.8 103.507C116.862 104.545 116.007 105.386 115.26 105.988C114.748 106.402 114.323 106.673 113.987 106.829C100.795 90.4292 90.8429 82.7442 82.762 79.267C75.3568 76.0806 69.5806 76.462 64.5638 76.7934C64.3304 76.8088 64.0986 76.8241 63.8684 76.8389V69.6974C66.8069 69.394 69.3277 67.4968 71.4282 64.9653C73.729 62.1925 75.6342 58.5327 77.149 54.9257C78.6675 51.3099 79.8124 47.7016 80.5772 45.0014C80.9599 43.6502 81.2482 42.5235 81.4411 41.7335C81.5375 41.3384 81.6102 41.0273 81.6588 40.8142C81.6832 40.7077 81.7015 40.6256 81.7139 40.5698L81.728 40.506L81.7326 40.4847C81.7327 40.4843 81.733 40.4828 80.9383 40.3121L81.733 40.4828L81.7378 40.4604L81.7413 40.4378L80.9383 40.3121C81.7413 40.4378 81.7413 40.438 81.7413 40.4378L81.7428 40.4285L81.7465 40.4042L81.7602 40.3123C81.772 40.2322 81.7888 40.1151 81.8093 39.9647C81.8502 39.6639 81.9061 39.2296 81.966 38.6913C82.0858 37.6155 82.2226 36.1205 82.2902 34.4438C82.4152 31.3467 82.3108 27.5121 81.3551 24.5653ZM80.1386 40.1639L80.1392 40.16L80.1518 40.0759C80.1628 40.0012 80.1788 39.8897 80.1984 39.7452C80.2378 39.4561 80.292 39.0351 80.3503 38.5114C80.467 37.4632 80.6001 36.0076 80.6659 34.3783C80.7854 31.4148 80.676 27.9851 79.905 25.3769C79.4116 25.5649 78.8683 25.7005 78.2976 25.8C77.3409 25.9667 76.2521 26.0406 75.0905 26.063C73.4063 26.0953 71.5025 26.0192 69.5558 25.9413C68.8313 25.9123 68.1008 25.8831 67.3736 25.8592C64.6636 25.77 61.9711 25.752 59.615 26.0611C57.2674 26.3691 55.3751 26.9881 54.1346 28.0715C52.3735 30.1097 50.228 32.3381 48.1027 33.9603C47.0333 34.7766 45.9409 35.4613 44.8821 35.8849C44.1501 36.1778 43.3976 36.3602 42.6621 36.3502C42.4369 39.6844 42.6659 44.3191 43.8806 49.0513C45.7714 56.4175 50.0063 63.8783 58.4747 67.192C60.1132 67.8332 61.6372 68.117 63.054 68.1142C65.6359 68.1091 68.0148 66.5332 70.1772 63.9272C72.3301 61.3326 74.1618 57.8401 75.6501 54.2962C77.1347 50.7611 78.2592 47.22 79.013 44.5584C79.3896 43.2288 79.6729 42.1216 79.8617 41.3479C79.9562 40.9611 80.027 40.6579 80.074 40.4521C80.0975 40.3492 80.1151 40.2707 80.1267 40.2183L80.1386 40.1639ZM42.1754 34.6612C42.7242 34.7983 43.4221 34.7181 44.2782 34.3755C45.1495 34.0269 46.1107 33.4356 47.1163 32.668C49.1264 31.1337 51.2022 28.9822 52.9399 26.9676L52.9748 26.9271L53.0147 26.8915C54.62 25.4614 56.9213 24.7749 59.4035 24.4492C61.9018 24.1214 64.7092 24.1449 67.4271 24.2344C68.1851 24.2593 68.9343 24.2893 69.6692 24.3187C71.5972 24.3958 73.4269 24.4689 75.0593 24.4375C76.1805 24.416 77.1771 24.3451 78.0185 24.1984C78.8673 24.0505 79.505 23.8342 79.9445 23.5558C82.4321 21.9802 83.6897 19.6953 83.9291 17.2042C84.1705 14.6921 83.3772 11.9249 81.6616 9.45655C78.2485 4.54611 71.2237 0.893901 61.8997 3.0813C58.5082 4.15589 52.6039 7.01896 51.0926 13.0637L50.8128 14.1827L49.8531 13.5429C46.4594 11.2804 42.263 11.0964 38.0797 12.6529C33.8903 14.2118 29.7609 17.507 26.631 22.1029C20.3905 31.2661 18.1591 45.5575 27.4309 61.2236L27.7804 61.8142L27.2568 62.2578C25.5815 63.6769 23.3879 66.2855 22.2826 69.4451C21.2412 72.4223 21.1653 75.8729 23.3971 79.3504C27.3596 77.9142 31.1143 76.9656 34.0633 76.2525C34.3865 76.1743 34.699 76.0992 35.0005 76.0268C36.1529 75.7499 37.1444 75.5117 37.9519 75.2899C38.4597 75.1504 38.8766 75.0223 39.2022 74.9011C39.5412 74.775 39.7255 74.6762 39.8079 74.6145C39.9484 74.509 40.17 74.2173 40.4141 73.6072C40.6474 73.0243 40.8622 72.2522 41.0553 71.3179C41.4409 69.4521 41.7204 67.0384 41.916 64.4137C42.2839 59.4757 42.349 53.8773 42.2924 49.9737C40.6873 49.7238 38.6015 49.0664 36.8071 47.7804C34.6944 46.2663 32.9801 43.8689 32.9801 40.3121C32.9801 38.5773 33.3415 37.2251 34.0005 36.2112C34.6659 35.1876 35.5922 34.5748 36.5934 34.2544C38.5217 33.6373 40.7365 34.095 42.1754 34.6612ZM43.9275 54.3578C43.8976 57.571 43.7858 61.1973 43.5372 64.5345C43.3395 67.1866 43.0538 69.6805 42.6474 71.647C42.4444 72.6288 42.2065 73.504 41.9235 74.2112C41.7338 74.6853 41.5022 75.1405 41.2068 75.5022C42.0658 78.3705 44.0322 81.6155 47.2162 82.8597C50.4497 84.1232 55.3258 83.4588 62.2427 77.339V69.7144C60.8477 69.6248 59.3938 69.2974 57.8823 68.7059C50.6928 65.8927 46.391 60.324 43.9275 54.3578ZM63.386 78.498C56.2427 84.8405 50.7058 85.9686 46.6246 84.3739C42.9663 82.9444 40.797 79.4392 39.7913 76.4165C39.7839 76.4192 39.7766 76.422 39.7693 76.4247C39.3785 76.5702 38.9093 76.7129 38.3824 76.8576C37.5472 77.0869 36.5213 77.3334 35.3651 77.6112C35.0669 77.6828 34.76 77.7566 34.4454 77.8326C31.3593 78.5789 27.4511 79.5694 23.364 81.0947C22.5372 81.4032 21.5144 82.2797 20.3479 83.7875C19.2009 85.2701 17.9883 87.2654 16.7536 89.6581C14.2856 94.4406 11.7722 100.726 9.54585 107.466C7.32057 114.202 5.38943 121.37 4.08005 127.91C2.88615 133.873 2.21846 139.27 2.29836 143.329L31.5328 130.687L31.7947 130.748C34.0425 131.277 36.8371 131.205 39.98 130.669C42.5894 130.225 45.4024 129.467 48.2847 128.503C47.4377 127.878 46.8092 127.086 46.3693 126.183C45.6803 124.767 45.4728 123.12 45.5362 121.477C45.6626 118.199 46.8771 114.706 47.9468 112.491L48.1686 112.031H48.6788C52.9431 112.031 57.635 109.472 61.8482 106.112C66.0326 102.775 69.603 98.7635 71.6012 96.0993L71.7214 95.939L73.4709 95.1071C73.094 93.6659 72.9067 92.4305 72.8957 91.385C72.8831 90.1848 73.1027 89.1809 73.5904 88.4078C74.6257 86.7664 76.5414 86.5795 78.4261 86.9988C80.342 87.4251 82.5515 88.5266 84.6881 89.9437C86.8322 91.3659 88.9575 93.1423 90.7125 94.9775C93.5658 97.7858 95.771 102.938 94.4484 109.868C93.5025 114.823 90.7601 120.662 85.2073 127.217C90.0566 123.686 94.7458 120.489 98.9249 117.64C100.814 116.352 102.599 115.134 104.247 113.99C107.764 111.548 110.635 109.452 112.597 107.695C99.5427 91.4959 89.8277 84.0772 82.1195 80.7604C75.0855 77.7336 69.6661 78.0887 64.6648 78.4165C64.2357 78.4446 63.8097 78.4725 63.386 78.498ZM114.108 108.517C112.196 110.3 109.376 112.389 105.982 114.762C108.254 116.898 113.283 121.006 119.726 124.457C121.301 125.3 122.999 125.299 124.787 124.666C126.594 124.027 128.456 122.751 130.258 121.107C133.861 117.823 137.051 113.234 138.882 110.005L138.889 109.993L138.896 109.981C140.937 106.646 143.961 101.266 146.389 95.9821C147.604 93.3394 148.662 90.7368 149.375 88.4351C150.026 86.335 150.364 84.5624 150.318 83.2611L141.678 78.3664L141.612 78.3063C141.075 77.8213 140.91 76.9411 141.095 75.9267C141.286 74.8717 141.875 73.4899 143.119 71.7321L143.139 71.7033L143.162 71.6764C144.626 69.946 146.466 67.3095 147.306 64.996C147.73 63.8283 147.852 62.8668 147.668 62.1781C147.508 61.5785 147.084 61.063 146.023 60.7972C144.815 60.4946 143.682 61.0035 142.565 62.279C141.441 63.5621 140.466 65.489 139.666 67.6169C138.871 69.7308 138.271 71.9784 137.871 73.8507C137.465 75.7466 137.279 77.1865 137.279 77.7033V77.9246L137.167 78.1153C134.323 82.9512 129.769 90.2637 125.345 96.4879C123.134 99.5981 120.943 102.454 119.006 104.597C118.039 105.668 117.12 106.577 116.281 107.253C115.549 107.844 114.811 108.315 114.108 108.517ZM151.382 81.9951C152.741 82.2394 153.623 81.9375 154.183 81.5386C154.787 81.1085 155.093 80.5113 155.186 80.1358L155.215 80.0213L155.275 79.9197C156.49 77.863 158.395 74.542 160.157 71.2699C161.93 67.9774 163.523 64.7977 164.148 62.9939C164.707 61.3829 164.356 60.1819 163.727 59.3013C163.069 58.3808 162.079 57.7786 161.382 57.5192L161.271 57.4782L161.177 57.4076C160.135 56.6259 157.217 54.7155 154.047 53.4478C152.613 52.8741 151.558 53.0166 150.826 53.3511C150.077 53.6937 149.599 54.269 149.396 54.663L147.311 59.5296C148.329 59.9981 148.974 60.7648 149.239 61.7587C149.551 62.9281 149.298 64.2731 148.834 65.5506C147.904 68.1143 145.939 70.9072 144.426 72.6992C143.278 74.3285 142.828 75.4803 142.694 76.2174C142.598 76.7447 142.67 76.9935 142.703 77.0786L151.382 81.9951ZM102.638 117.073C101.725 117.698 100.781 118.342 99.812 119.003C93.07 123.6 85.0644 129.059 77.1863 135.367C75.4089 136.955 73.47 138.576 71.358 140.229C70.3177 141.133 69.2846 141.91 68.2631 142.58C67.0858 143.45 65.8608 144.327 64.5863 145.213C57.0259 150.466 49.8607 153.975 43.2493 156.138C43.2091 156.333 43.1704 156.533 43.1332 156.738H86.483C85.7861 154.741 85.4557 153.338 85.4962 152.213C85.5475 150.787 86.1873 149.891 87.026 148.933C87.1947 148.74 87.3731 148.543 87.561 148.335C88.3004 147.517 89.1868 146.537 90.2071 145.03C91.4826 143.146 92.9653 140.436 94.5262 136.268C97.2344 129.038 100.146 122.325 102.638 117.073ZM41.4823 156.738C41.4853 156.721 41.4883 156.703 41.4913 156.686C41.4324 156.703 41.3736 156.721 41.3148 156.738H41.4823ZM34.0197 156.738C36.5231 156.332 39.1437 155.721 41.8697 154.872C42.5991 151.934 43.7271 149.945 45.2465 148.583C47.1593 146.869 49.5708 146.265 52.1496 145.846C52.8154 145.737 53.4989 145.64 54.1986 145.54C58.1337 144.98 62.5831 144.347 67.3138 141.26C68.3548 140.491 69.3574 139.729 70.3227 138.975C72.2387 137.306 74.1836 135.69 76.1359 134.126C87.0642 124.355 91.6208 116.011 92.8516 109.563C94.0803 103.126 92.0095 98.5295 89.5642 96.1284L89.555 96.1193L89.546 96.11C87.8736 94.3597 85.8378 92.6571 83.7895 91.2985C81.7301 89.9326 79.7121 88.9504 78.073 88.5857C76.4028 88.2141 75.436 88.529 74.9654 89.2751C74.7 89.6959 74.5107 90.3573 74.5213 91.368C74.5319 92.3756 74.741 93.6772 75.2164 95.3228C76.1784 98.6527 77.1753 101.07 78.0055 102.975C78.1316 103.264 78.2553 103.545 78.3755 103.817C79.0308 105.303 79.5801 106.548 79.8354 107.692C80.1572 109.135 80.0271 110.446 79.2455 111.986C78.4926 113.47 77.132 115.173 75.0342 117.458L74.958 117.541L74.8621 117.6C69.353 120.996 59.8352 126.105 50.5791 129.428C47.0346 130.7 43.5107 131.717 40.2531 132.272C37.117 132.807 34.1783 132.922 31.6886 132.391L2.40645 145.053C2.75295 147.21 4.35265 149.654 7.20855 151.824C10.1185 154.036 14.2563 155.896 19.4156 156.796V156.738H34.0197ZM60.4033 146.048C58.2602 146.611 56.2413 146.896 54.4009 147.156C53.7115 147.253 53.0471 147.347 52.4106 147.45C49.8725 147.863 47.8717 148.413 46.3315 149.794C45.2794 150.736 44.3842 152.122 43.7243 154.264C48.946 152.463 54.5321 149.795 60.4033 146.048ZM104.948 116.02C102.514 121.017 99.5608 127.67 96.7626 134.956L117.558 125.118C111.73 121.816 107.183 118.11 104.948 116.02ZM73.9268 96.6904L72.7805 97.2355C70.6941 99.988 67.0886 104.013 62.8618 107.383C58.7344 110.675 53.8809 113.451 49.2008 113.646C48.2483 115.743 47.2676 118.767 47.1607 121.539C47.1034 123.024 47.2991 124.379 47.831 125.471C48.3167 126.469 49.098 127.283 50.3161 127.794C59.2926 124.538 68.5112 119.597 73.9129 116.275C75.96 114.04 77.1609 112.502 77.7957 111.251C78.4096 110.041 78.487 109.114 78.2487 108.046C78.0312 107.071 77.5607 106.003 76.9021 104.507C76.7795 104.228 76.6504 103.935 76.5151 103.624C75.7471 101.862 74.8297 99.6475 73.9268 96.6904ZM42.0213 48.2732C40.7063 48.0032 39.1193 47.4374 37.7541 46.459C35.9916 45.1958 34.6058 43.258 34.6058 40.3121C34.6058 38.7955 34.9218 37.7768 35.3636 37.0972C35.7989 36.4274 36.3967 36.0242 37.0889 35.8027C38.3256 35.407 39.8471 35.6021 41.0581 35.9885C40.8138 39.2262 40.9827 43.6603 42.0213 48.2732Z" fill="black"/>
<path d="M43.0933 49.2535C41.7479 44.012 41.5872 38.8894 41.9215 35.435C39.212 34.3512 33.793 33.8093 33.793 40.3121C33.793 46.8149 39.9932 48.9825 43.0933 49.2535Z" fill="white"/>
<path d="M80.9383 40.3121C80.9383 40.3121 82.564 29.9325 80.3795 24.2425C75.8439 27.1151 59.2454 22.4294 53.5554 27.4985C50.0498 31.5628 45.0833 36.2973 41.9215 35.435C41.5872 38.8894 41.7479 44.012 43.0933 49.2535C45.0193 56.7566 49.3731 64.5034 58.1785 67.949C59.9018 68.6234 61.5266 68.9301 63.0556 68.9271C74.7959 68.9041 80.9383 40.3121 80.9383 40.3121Z" fill="white"/>
<path d="M58.1785 67.949C49.3731 64.5034 45.0193 56.7566 43.0933 49.2535C43.2445 57.111 42.8967 73.3139 40.2956 75.2648C41.9213 81.4329 48.7494 90.5559 63.0556 77.7033V68.9271C61.5266 68.9301 59.9018 68.6234 58.1785 67.949Z" fill="white"/>
<path d="M90.1337 95.5484C83.2753 88.3708 70.5339 82.0431 74.4355 95.5484C78.3371 109.054 82.8181 107.779 74.4355 116.908C68.9585 120.285 59.4924 125.365 50.3045 128.663C43.2715 131.187 36.4016 132.667 31.6085 131.54L1.53305 144.545C1.85103 149.77 8.80652 156.056 20.2285 157.751C31.3141 159.395 46.6071 156.716 64.1225 144.545C66.5377 142.867 70.8404 139.602 70.8404 139.602C70.8404 139.602 74.7053 136.313 76.6612 134.747C98.6982 115.053 95.4368 100.756 90.1337 95.5484Z" fill="white"/>
<path d="M146.221 60.0088C139.718 58.38 136.466 75.2648 136.466 77.7033C130.794 87.3493 118.301 106.869 113.706 107.779C111.699 109.683 108.567 111.98 104.711 114.657C106.552 116.537 112.056 121.272 119.342 125.173C126.629 129.075 135.876 116.954 139.589 110.406C143.697 103.694 151.748 88.7717 151.098 82.7686L142.157 77.7033C141.696 77.2869 141.376 75.6036 143.782 72.2015C146.763 68.6802 151.423 61.3118 146.221 60.0088Z" fill="white"/>
<path d="M74.4355 116.908C82.8181 107.779 78.3371 109.054 74.4355 95.5484L72.2515 96.5871C68.1872 102.006 57.7827 112.844 48.6788 112.844C46.596 117.158 44.0053 126.361 50.3045 128.663C59.4924 125.365 68.9585 120.285 74.4355 116.908Z" fill="white"/>
<path fill-rule="evenodd" clip-rule="evenodd" d="M81.3551 24.5653C83.9262 22.7283 85.2794 20.1479 85.5473 17.3597C85.8314 14.4033 84.8942 11.259 82.9965 8.52871C79.1863 3.047 71.464 -0.844154 61.4973 1.50588L61.4682 1.51276L61.4395 1.52178C58.1313 2.56455 51.935 5.41137 49.8231 11.6237C46.0915 9.56474 41.7127 9.56655 37.5128 11.1293C32.9641 12.8219 28.5789 16.3546 25.2873 21.1878C18.7636 30.7669 16.4995 45.4972 25.6935 61.472C23.9395 63.0974 21.8592 65.7321 20.7481 68.9084C19.5912 72.2156 19.4863 76.1245 21.8987 80.022C20.9364 80.6257 19.9864 81.598 19.0621 82.7927C17.8321 84.3825 16.5681 86.4724 15.3089 88.9126C12.7889 93.7959 10.2447 100.167 8.00219 106.956C5.75865 113.748 3.8097 120.979 2.48599 127.591C1.16519 134.188 0.455655 140.221 0.721692 144.595C0.900594 147.534 2.91723 150.605 6.22498 153.119C9.55458 155.649 14.2817 157.69 20.1091 158.555C31.4351 160.235 46.9331 157.479 64.5863 145.213C65.806 144.365 67.4949 143.122 68.8727 142.096C69.563 141.582 70.1775 141.12 70.6195 140.787C70.8405 140.621 71.0184 140.486 71.1411 140.394L71.3191 140.259L71.3309 140.25L71.3416 140.242L71.3512 140.234L71.5296 140.089C71.6441 139.997 71.8096 139.862 72.0137 139.696C72.4217 139.364 72.9844 138.905 73.6027 138.396C74.8278 137.387 76.2847 136.172 77.1863 135.367C85.0644 129.059 93.07 123.6 99.812 119.003C100.781 118.342 101.725 117.698 102.638 117.073C100.146 122.325 97.2344 129.038 94.5262 136.268C92.9653 140.436 91.4826 143.146 90.2071 145.03C89.1868 146.537 88.3004 147.517 87.561 148.335C87.3731 148.543 87.1947 148.74 87.026 148.933C86.1873 149.891 85.5475 150.787 85.4962 152.213C85.4557 153.338 85.7861 154.741 86.483 156.738H42.1754V158.364H87.6412V157.551C87.6412 158.364 87.6411 158.364 87.6412 158.364H113.706V156.738H88.2086C87.3825 154.454 87.0888 153.163 87.1208 152.272C87.1515 151.419 87.4809 150.882 88.2493 150.004C88.3998 149.832 88.5655 149.649 88.7446 149.451C89.4875 148.63 90.4626 147.553 91.5533 145.942C92.8778 143.985 94.3747 141.245 95.932 137.148L119.333 126.077C121.29 126.989 123.344 126.902 125.329 126.199C127.421 125.459 129.469 124.027 131.354 122.309C135.12 118.875 138.407 114.137 140.29 110.818C142.356 107.442 145.408 102.011 147.866 96.661C149.097 93.9837 150.186 91.3106 150.928 88.9162C151.522 87.0007 151.913 85.2014 151.946 83.6976C153.28 83.7752 154.334 83.4265 155.126 82.8628C156.026 82.2218 156.528 81.3437 156.73 80.6526C157.956 78.5751 159.841 75.2859 161.588 72.0406C163.351 68.7664 165.009 65.4737 165.684 63.5264C166.426 61.3863 165.965 59.6383 165.049 58.3564C164.198 57.1639 162.978 56.403 162.061 56.0387C160.868 55.1597 157.898 53.237 154.651 51.9384C152.834 51.2116 151.315 51.34 150.15 51.8726C149.015 52.3914 148.277 53.2658 147.932 53.9553L147.922 53.9767L145.725 59.1017C143.986 58.9438 142.511 59.8732 141.342 61.2079C140.027 62.7088 138.97 64.8501 138.144 67.0446C137.313 69.2532 136.693 71.5822 136.281 73.5107C135.913 75.2283 135.698 76.686 135.66 77.471C132.825 82.2811 128.354 89.448 124.02 95.5461C121.824 98.6353 119.675 101.433 117.8 103.507C116.862 104.545 116.007 105.386 115.26 105.988C114.748 106.402 114.323 106.673 113.987 106.829C100.795 90.4292 90.8429 82.7442 82.762 79.267C75.3568 76.0806 69.5806 76.462 64.5638 76.7934C64.3304 76.8088 64.0986 76.8241 63.8684 76.8389V69.6974C66.8069 69.394 69.3277 67.4968 71.4282 64.9653C73.729 62.1925 75.6342 58.5327 77.149 54.9257C78.6675 51.3099 79.8124 47.7016 80.5772 45.0014C80.9599 43.6502 81.2482 42.5235 81.4411 41.7335C81.5375 41.3384 81.6102 41.0273 81.6588 40.8142C81.6832 40.7077 81.7015 40.6256 81.7139 40.5698L81.728 40.506L81.7326 40.4847C81.7327 40.4843 81.733 40.4828 80.9383 40.3121L81.733 40.4828L81.7378 40.4604L81.7413 40.4378L80.9383 40.3121C81.7413 40.4378 81.7413 40.438 81.7413 40.4378L81.7428 40.4285L81.7465 40.4042L81.7602 40.3123C81.772 40.2322 81.7888 40.1151 81.8093 39.9647C81.8502 39.6639 81.9061 39.2296 81.966 38.6913C82.0858 37.6155 82.2226 36.1205 82.2902 34.4438C82.4152 31.3467 82.3108 27.5121 81.3551 24.5653ZM80.1386 40.1639L80.1392 40.16L80.1518 40.0759C80.1628 40.0012 80.1788 39.8897 80.1984 39.7452C80.2378 39.4561 80.292 39.0351 80.3503 38.5114C80.467 37.4632 80.6001 36.0076 80.6659 34.3783C80.7854 31.4148 80.676 27.9851 79.905 25.3769C79.4116 25.5649 78.8683 25.7005 78.2976 25.8C77.3409 25.9667 76.2521 26.0406 75.0905 26.063C73.4063 26.0953 71.5025 26.0192 69.5558 25.9413C68.8313 25.9123 68.1008 25.8831 67.3736 25.8592C64.6636 25.77 61.9711 25.752 59.615 26.0611C57.2674 26.3691 55.3751 26.9881 54.1346 28.0715C52.3735 30.1097 50.228 32.3381 48.1027 33.9603C47.0333 34.7766 45.9409 35.4613 44.8821 35.8849C44.1501 36.1778 43.3976 36.3602 42.6621 36.3502C42.4369 39.6844 42.6659 44.3191 43.8806 49.0513C45.7714 56.4175 50.0063 63.8783 58.4747 67.192C60.1132 67.8332 61.6372 68.117 63.054 68.1142C65.6359 68.1091 68.0148 66.5332 70.1772 63.9272C72.3301 61.3326 74.1618 57.8401 75.6501 54.2962C77.1347 50.7611 78.2592 47.22 79.013 44.5584C79.3896 43.2288 79.6729 42.1216 79.8617 41.3479C79.9562 40.9611 80.027 40.6579 80.074 40.4521C80.0975 40.3492 80.1151 40.2707 80.1267 40.2183L80.1386 40.1639ZM42.1754 34.6612C42.7242 34.7983 43.4221 34.7181 44.2782 34.3755C45.1495 34.0269 46.1107 33.4356 47.1163 32.668C49.1264 31.1337 51.2022 28.9822 52.9399 26.9676L52.9748 26.9271L53.0147 26.8915C54.62 25.4614 56.9213 24.7749 59.4035 24.4492C61.9018 24.1214 64.7092 24.1449 67.4271 24.2344C68.1851 24.2593 68.9343 24.2893 69.6692 24.3187C71.5972 24.3958 73.4269 24.4689 75.0593 24.4375C76.1805 24.416 77.1771 24.3451 78.0185 24.1984C78.8673 24.0505 79.505 23.8342 79.9445 23.5558C82.4321 21.9802 83.6897 19.6953 83.9291 17.2042C84.1705 14.6921 83.3772 11.9249 81.6616 9.45655C78.2485 4.54611 71.2237 0.893901 61.8997 3.0813C58.5082 4.15589 52.6039 7.01896 51.0926 13.0637L50.8128 14.1827L49.8531 13.5429C46.4594 11.2804 42.263 11.0964 38.0797 12.6529C33.8903 14.2118 29.7609 17.507 26.631 22.1029C20.3905 31.2661 18.1591 45.5575 27.4309 61.2236L27.7804 61.8142L27.2568 62.2578C25.5815 63.6769 23.3879 66.2855 22.2826 69.4451C21.2412 72.4223 21.1653 75.8729 23.3971 79.3504C27.3596 77.9142 31.1143 76.9656 34.0633 76.2525C34.3865 76.1743 34.699 76.0992 35.0005 76.0268C36.1529 75.7499 37.1444 75.5117 37.9519 75.2899C38.4597 75.1504 38.8766 75.0223 39.2022 74.9011C39.5412 74.775 39.7255 74.6762 39.8079 74.6145C39.9484 74.509 40.17 74.2173 40.4141 73.6072C40.6474 73.0243 40.8622 72.2522 41.0553 71.3179C41.4409 69.4521 41.7204 67.0384 41.916 64.4137C42.2839 59.4757 42.349 53.8773 42.2924 49.9737C40.6873 49.7238 38.6015 49.0664 36.8071 47.7804C34.6944 46.2663 32.9801 43.8689 32.9801 40.3121C32.9801 38.5773 33.3415 37.2251 34.0005 36.2112C34.6659 35.1876 35.5922 34.5748 36.5934 34.2544C38.5217 33.6373 40.7365 34.095 42.1754 34.6612ZM43.9275 54.3578C43.8976 57.571 43.7858 61.1973 43.5372 64.5345C43.3395 67.1866 43.0538 69.6805 42.6474 71.647C42.4444 72.6288 42.2065 73.504 41.9235 74.2112C41.7338 74.6853 41.5022 75.1405 41.2068 75.5022C42.0658 78.3705 44.0322 81.6155 47.2162 82.8597C50.4497 84.1232 55.3258 83.4588 62.2427 77.339V69.7144C60.8477 69.6248 59.3938 69.2974 57.8823 68.7059C50.6928 65.8927 46.391 60.324 43.9275 54.3578ZM63.386 78.498C56.2427 84.8405 50.7058 85.9686 46.6246 84.3739C42.9663 82.9444 40.797 79.4392 39.7913 76.4165C39.7839 76.4192 39.7766 76.422 39.7693 76.4247C39.3785 76.5702 38.9093 76.7129 38.3824 76.8576C37.5472 77.0869 36.5213 77.3334 35.3651 77.6112C35.0669 77.6828 34.76 77.7566 34.4454 77.8326C31.3593 78.5789 27.4511 79.5694 23.364 81.0947C22.5372 81.4032 21.5144 82.2797 20.3479 83.7875C19.2009 85.2701 17.9883 87.2654 16.7536 89.6581C14.2856 94.4406 11.7722 100.726 9.54585 107.466C7.32057 114.202 5.38943 121.37 4.08005 127.91C2.88615 133.873 2.21846 139.27 2.29836 143.329L31.5328 130.687L31.7947 130.748C34.0425 131.277 36.8371 131.205 39.98 130.669C42.5894 130.225 45.4024 129.467 48.2847 128.503C47.4377 127.878 46.8092 127.086 46.3693 126.183C45.6803 124.767 45.4728 123.12 45.5362 121.477C45.6626 118.199 46.8771 114.706 47.9468 112.491L48.1686 112.031H48.6788C52.9431 112.031 57.635 109.472 61.8482 106.112C66.0326 102.775 69.603 98.7635 71.6012 96.0993L71.7214 95.939L73.4709 95.1071C73.094 93.6659 72.9067 92.4305 72.8957 91.385C72.8831 90.1848 73.1027 89.1809 73.5904 88.4078C74.6257 86.7664 76.5414 86.5795 78.4261 86.9988C80.342 87.4251 82.5515 88.5266 84.6881 89.9437C86.8322 91.3659 88.9575 93.1423 90.7125 94.9775C93.5658 97.7858 95.771 102.938 94.4484 109.868C93.5025 114.823 90.7601 120.662 85.2073 127.217C90.0566 123.686 94.7458 120.489 98.9249 117.64C100.814 116.352 102.599 115.134 104.247 113.99C107.764 111.548 110.635 109.452 112.597 107.695C99.5427 91.4959 89.8277 84.0772 82.1195 80.7604C75.0855 77.7336 69.6661 78.0887 64.6648 78.4165C64.2357 78.4446 63.8097 78.4725 63.386 78.498ZM114.108 108.517C112.196 110.3 109.376 112.389 105.982 114.762C108.254 116.898 113.283 121.006 119.726 124.457C121.301 125.3 122.999 125.299 124.787 124.666C126.594 124.027 128.456 122.751 130.258 121.107C133.861 117.823 137.051 113.234 138.882 110.005L138.889 109.993L138.896 109.981C140.937 106.646 143.961 101.266 146.389 95.9821C147.604 93.3394 148.662 90.7368 149.375 88.4351C150.026 86.335 150.364 84.5624 150.318 83.2611L141.678 78.3664L141.612 78.3063C141.075 77.8213 140.91 76.9411 141.095 75.9267C141.286 74.8717 141.875 73.4899 143.119 71.7321L143.139 71.7033L143.162 71.6764C144.626 69.946 146.466 67.3095 147.306 64.996C147.73 63.8283 147.852 62.8668 147.668 62.1781C147.508 61.5785 147.084 61.063 146.023 60.7972C144.815 60.4946 143.682 61.0035 142.565 62.279C141.441 63.5621 140.466 65.489 139.666 67.6169C138.871 69.7308 138.271 71.9784 137.871 73.8507C137.465 75.7466 137.279 77.1865 137.279 77.7033V77.9246L137.167 78.1153C134.323 82.9512 129.769 90.2637 125.345 96.4879C123.134 99.5981 120.943 102.454 119.006 104.597C118.039 105.668 117.12 106.577 116.281 107.253C115.549 107.844 114.811 108.315 114.108 108.517ZM151.382 81.9951C152.741 82.2394 153.623 81.9375 154.183 81.5386C154.787 81.1085 155.093 80.5113 155.186 80.1358L155.215 80.0213L155.275 79.9197C156.49 77.863 158.395 74.542 160.157 71.2699C161.93 67.9774 163.523 64.7977 164.148 62.9939C164.707 61.3829 164.356 60.1819 163.727 59.3013C163.069 58.3808 162.079 57.7786 161.382 57.5192L161.271 57.4782L161.177 57.4076C160.135 56.6259 157.217 54.7155 154.047 53.4478C152.613 52.8741 151.558 53.0166 150.826 53.3511C150.077 53.6937 149.599 54.269 149.396 54.663L147.311 59.5296C148.329 59.9981 148.974 60.7648 149.239 61.7587C149.551 62.9281 149.298 64.2731 148.834 65.5506C147.904 68.1143 145.939 70.9072 144.426 72.6992C143.278 74.3285 142.828 75.4803 142.694 76.2174C142.598 76.7447 142.67 76.9935 142.703 77.0786L151.382 81.9951ZM104.948 116.02C107.183 118.11 111.73 121.816 117.558 125.118L96.7626 134.956C99.5608 127.67 102.514 121.017 104.948 116.02ZM76.1359 134.126C87.0642 124.356 91.6208 116.011 92.8516 109.563C94.0803 103.126 92.0095 98.5295 89.5642 96.1284L89.555 96.1193L89.546 96.11C87.8736 94.3597 85.8378 92.6571 83.7895 91.2985C81.7301 89.9326 79.7121 88.9504 78.073 88.5857C76.4028 88.2141 75.436 88.529 74.9654 89.2751C74.7 89.6959 74.5107 90.3573 74.5213 91.368C74.5319 92.3756 74.741 93.6772 75.2164 95.3228C76.1784 98.6527 77.1753 101.07 78.0055 102.975C78.1316 103.264 78.2553 103.545 78.3755 103.817C79.0308 105.303 79.5801 106.548 79.8354 107.692C80.1572 109.135 80.0271 110.446 79.2455 111.986C78.4926 113.47 77.132 115.173 75.0342 117.458L74.958 117.541L74.8621 117.6C69.353 120.996 59.8352 126.105 50.5791 129.428C47.0346 130.7 43.5107 131.717 40.2531 132.272C37.117 132.807 34.1783 132.922 31.6886 132.391L2.40645 145.053C2.75295 147.21 4.35265 149.654 7.20855 151.824C10.2917 154.167 14.7533 156.116 20.3478 156.946C31.1931 158.556 46.2811 155.953 63.6587 143.878C64.8543 143.047 66.5243 141.818 67.9016 140.792C68.5889 140.28 69.201 139.821 69.6412 139.489C69.8613 139.323 70.0384 139.189 70.1604 139.097L70.3311 138.968L70.9495 138.443C71.3429 138.11 71.8879 137.649 72.4942 137.139C73.6977 136.128 75.1498 134.916 76.1359 134.126ZM73.9268 96.6904L72.7805 97.2355C70.6941 99.988 67.0886 104.013 62.8618 107.383C58.7344 110.675 53.8809 113.451 49.2008 113.646C48.2483 115.743 47.2676 118.767 47.1607 121.539C47.1034 123.024 47.2991 124.379 47.831 125.471C48.3167 126.469 49.098 127.283 50.3161 127.794C59.2926 124.538 68.5112 119.597 73.9129 116.275C75.96 114.04 77.1609 112.502 77.7957 111.251C78.4096 110.041 78.487 109.114 78.2487 108.046C78.0312 107.071 77.5607 106.003 76.9021 104.507C76.7795 104.228 76.6504 103.935 76.5151 103.624C75.7471 101.862 74.8297 99.6475 73.9268 96.6904ZM42.0213 48.2732C40.7063 48.0032 39.1193 47.4374 37.7541 46.459C35.9916 45.1958 34.6058 43.258 34.6058 40.3121C34.6058 38.7955 34.9218 37.7768 35.3636 37.0972C35.7989 36.4274 36.3967 36.0242 37.0889 35.8027C38.3256 35.407 39.8471 35.6021 41.0581 35.9885C40.8138 39.2262 40.9827 43.6603 42.0213 48.2732Z" fill="black"/>
<path d="M146.221 60.0083C151.423 61.3114 146.763 68.6798 143.782 72.2011C141.376 75.6031 141.696 77.2865 142.156 77.7029L151.098 82.7681C154.349 83.4184 155.704 81.4155 155.975 80.3327C158.413 76.2046 163.616 67.0108 164.916 63.2597C166.217 59.5087 163.291 57.3616 161.665 56.7569C160.581 55.9441 157.601 53.9932 154.349 52.6927C151.098 51.3921 149.201 53.2346 148.659 54.3184L146.221 60.0083Z" fill="#C4C4C4"/>
<path fill-rule="evenodd" clip-rule="evenodd" d="M149.396 54.6626L147.31 59.5292C148.328 59.9976 148.973 60.7643 149.239 61.7583C149.551 62.9277 149.298 64.2727 148.834 65.5501C147.904 68.1138 145.939 70.9067 144.426 72.6988C143.278 74.3281 142.828 75.4799 142.694 76.2169C142.598 76.7443 142.67 76.9931 142.703 77.0782L151.382 81.9947C152.741 82.239 153.622 81.9371 154.182 81.5382C154.786 81.1081 155.092 80.5109 155.186 80.1354L155.215 80.0209L155.275 79.9192C156.49 77.8625 158.395 74.5416 160.157 71.2694C161.93 67.9769 163.523 64.7972 164.148 62.9934C164.707 61.3825 164.355 60.1815 163.726 59.3008C163.069 58.3803 162.079 57.7782 161.382 57.5188L161.271 57.4778L161.177 57.4072C160.135 56.6255 157.217 54.7151 154.047 53.4474C152.613 52.8736 151.558 53.0161 150.826 53.3506C150.077 53.6932 149.599 54.2686 149.396 54.6626ZM150.15 51.8721C151.315 51.3396 152.834 51.2112 154.651 51.9379C157.898 53.2366 160.868 55.1592 162.061 56.0383C162.978 56.4026 164.198 57.1634 165.049 58.356C165.965 59.6378 166.426 61.3859 165.684 63.526C165.009 65.4732 163.351 68.766 161.588 72.0402C159.841 75.2854 157.956 78.5746 156.73 80.6521C156.528 81.3433 156.026 82.2213 155.126 82.8624C154.145 83.5611 152.76 83.9294 150.938 83.5652L150.811 83.5396L141.678 78.3659L141.611 78.3059C141.075 77.8209 140.91 76.9407 141.094 75.9262C141.286 74.8712 141.875 73.4894 143.119 71.7317L143.139 71.7029L143.162 71.6759C144.626 69.9455 146.466 67.309 147.306 64.9955C147.73 63.8278 147.852 62.8663 147.668 62.1777C147.508 61.5781 147.084 61.0626 146.023 60.7968L145.098 60.565L147.922 53.9762L147.932 53.9548C148.277 53.2653 149.015 52.3909 150.15 51.8721Z" fill="black"/>
<path fill-rule="evenodd" clip-rule="evenodd" d="M62.4706 42.4811C62.7971 42.7892 62.8121 43.3036 62.5041 43.6302L60.9637 45.2629C60.6556 45.5894 60.1412 45.6044 59.8146 45.2964C59.4881 44.9883 59.4731 44.4738 59.7812 44.1473L61.3215 42.5146C61.6296 42.188 62.1441 42.173 62.4706 42.4811ZM77.0601 40.8524C77.4537 41.0683 77.5977 41.5624 77.3818 41.956L76.0558 44.3728C75.8399 44.7664 75.3458 44.9104 74.9522 44.6945C74.5586 44.4785 74.4146 43.9844 74.6305 43.5908L75.9565 41.174C76.1724 40.7805 76.6665 40.6364 77.0601 40.8524ZM70.5165 49.2845C70.6787 49.703 70.4709 50.1739 70.0523 50.3361L65.8488 51.9652C65.4302 52.1274 64.9593 51.9195 64.7971 51.501C64.6349 51.0824 64.8427 50.6115 65.2613 50.4493L69.4648 48.8203C69.8834 48.658 70.3542 48.8659 70.5165 49.2845ZM61.0153 55.4572C61.4303 55.286 61.9056 55.4836 62.0768 55.8986C63.0095 58.1594 64.1177 58.7815 64.9473 58.8838C65.8529 58.9956 66.7683 58.5379 67.3434 58.0226C67.6778 57.723 68.1917 57.7512 68.4913 58.0856C68.7908 58.4199 68.7626 58.9338 68.4283 59.2334C67.6497 59.931 66.2846 60.6869 64.7483 60.4973C63.136 60.2984 61.6407 59.1043 60.5739 56.5186C60.4027 56.1036 60.6004 55.6284 61.0153 55.4572Z" fill="black"/>
<path d="M40.9383 110.835C43.1331 112.907 45.8187 113.54 48.7154 113.209C56.7191 112.293 66.334 104.014 71.6581 98.3556C74.5202 95.3138 74.4165 87.1865 69.923 83.9187C65.3597 80.6001 57.6761 76.8642 50.2201 79.1488C59.1294 83.2052 54.4214 88.4679 50.9537 90.5922C53.6675 88.8016 52.1078 84.9614 48.7154 87.1999C46.0014 88.9906 42.4489 87.0501 41.0119 85.8561C35.1914 93.3552 34.0783 104.361 40.9383 110.835Z" fill="white"/>
<path fill-rule="evenodd" clip-rule="evenodd" d="M44.6449 81.1234C46.3756 79.8186 48.1695 78.9268 49.982 78.3715C57.8174 75.9707 65.7813 79.9016 70.4011 83.2612C72.9033 85.0809 74.1175 88.1914 74.3591 91.1558C74.5989 94.099 73.8995 97.1596 72.2501 98.9125C69.5611 101.77 65.7863 105.293 61.6624 108.223C57.7171 111.026 53.3675 113.349 49.2981 113.952C48.5231 116.001 47.7319 118.944 47.6689 121.616C47.6 124.536 48.3879 126.743 50.5023 127.525C50.9233 127.681 51.1383 128.149 50.9824 128.57C50.8266 128.991 50.3589 129.206 49.9379 129.05C46.7825 127.882 45.971 124.656 46.0436 121.577C46.1049 118.979 46.7877 116.206 47.5151 114.102C44.9071 114.147 42.4455 113.375 40.3804 111.426C33.1061 104.561 34.3972 93.0526 40.3697 85.3576C41.5988 83.774 43.0329 82.3386 44.6449 81.1234ZM50.1646 80.0192C48.6335 80.5233 47.1093 81.3014 45.6236 82.4215C44.3533 83.3791 43.1981 84.4879 42.1754 85.708C42.8259 86.1429 43.6852 86.5963 44.6124 86.8669C45.8902 87.2397 47.183 87.237 48.2677 86.5213C49.2206 85.8926 50.1476 85.6223 50.9796 85.7272C51.832 85.8346 52.4868 86.3269 52.844 87.0071C52.9693 87.2457 53.0562 87.5001 53.1052 87.7632C53.7652 87.0126 54.2468 86.2086 54.4375 85.4068C54.6344 84.5791 54.534 83.7121 53.9121 82.8111C53.2983 81.922 52.1465 80.9592 50.1646 80.0192ZM52.5287 79.4498C53.7631 80.2128 54.6566 81.028 55.2499 81.8875C56.1426 83.1806 56.3189 84.5226 56.0191 85.7831C55.7269 87.011 54.9961 88.1155 54.1521 89.0297C53.3031 89.9493 52.2974 90.7222 51.3783 91.2852C51.0001 91.5169 50.5059 91.4026 50.2678 91.0283C50.0298 90.654 50.1358 90.1579 50.5061 89.9136C51.5825 89.2033 51.6496 88.2292 51.4047 87.7629C51.2872 87.5391 51.0856 87.3791 50.7763 87.3401C50.4464 87.2986 49.9064 87.3878 49.163 87.8782C47.5338 88.9532 45.6933 88.8757 44.1571 88.4275C43.0039 88.091 41.9578 87.5297 41.1754 86.9941C35.9378 94.2598 35.2365 104.337 41.4962 110.244C43.4823 112.118 45.913 112.711 48.623 112.401C52.418 111.967 56.6857 109.765 60.7208 106.898C64.7364 104.045 68.431 100.599 71.0661 97.7984C72.2788 96.5096 72.9586 93.9856 72.7387 91.2878C72.5206 88.6112 71.4361 86.0241 69.445 84.576C65.3762 81.6171 58.9471 78.4436 52.5287 79.4498Z" fill="black"/>
<path d="M60.8236 101.123C61.1944 101.685 61.0394 102.441 60.4774 102.812C59.9153 103.183 59.159 103.028 58.7882 102.466C58.4173 101.904 58.5723 101.148 59.1344 100.777C59.6964 100.406 60.4527 100.561 60.8236 101.123Z" fill="black"/>
<path fill-rule="evenodd" clip-rule="evenodd" d="M47.0792 100.039C47.3324 99.6682 47.8382 99.5729 48.2089 99.8261C49.542 100.737 51.3365 99.5525 51.0238 97.9687C50.9368 97.5283 51.2234 97.1008 51.6638 97.0138C52.1042 96.9269 52.5317 97.2134 52.6187 97.6538C53.2133 100.665 49.8268 102.9 47.292 101.169C46.9213 100.915 46.826 100.41 47.0792 100.039Z" fill="black"/>
<path d="M45.1341 81.7732C43.5826 82.9429 42.1992 84.3268 41.0117 85.8567C42.4488 87.0508 46.0013 88.9913 48.7152 87.2005C52.1077 84.9621 53.6674 88.8022 50.9536 90.5928C54.4213 88.4686 59.1293 83.2059 50.22 79.1494C48.4989 79.6768 46.7898 80.525 45.1341 81.7732Z" fill="black"/>
<path fill-rule="evenodd" clip-rule="evenodd" d="M44.6448 81.1242C46.3755 79.8194 48.1694 78.9276 49.9819 78.3723C57.8172 75.9715 65.7812 79.9024 70.401 83.262C72.9032 85.0817 74.1174 88.1922 74.3589 91.1566C74.5988 94.0998 73.8994 97.1603 72.2499 98.9133C68.5957 102.797 62.9128 107.933 57.0654 111.122C51.2863 114.274 44.935 115.725 40.3803 111.427C33.106 104.562 34.3971 93.0533 40.3696 85.3584C41.5987 83.7748 43.0328 82.3394 44.6448 81.1242ZM50.1645 80.02C48.6333 80.5241 47.1092 81.3022 45.6234 82.4223C44.3532 83.3799 43.198 84.4887 42.1753 85.7088C42.8258 86.1436 43.685 86.5971 44.6123 86.8677C45.8901 87.2405 47.1828 87.2378 48.2676 86.5221C49.2204 85.8933 50.1475 85.6231 50.9794 85.728C51.8318 85.8354 52.4867 86.3277 52.8439 87.0079C52.9692 87.2465 53.0561 87.5009 53.1051 87.764C53.7651 87.0134 54.2466 86.2094 54.4374 85.4076C54.6343 84.5799 54.5339 83.7129 53.9119 82.8119C53.2982 81.9228 52.1464 80.96 50.1645 80.02ZM52.5286 79.4506C53.763 80.2136 54.6564 81.0288 55.2498 81.8883C56.1424 83.1813 56.3188 84.5234 56.0189 85.7839C55.7268 87.0118 54.996 88.1163 54.152 89.0305C53.303 89.9501 52.2973 90.723 51.3782 91.286C50.9999 91.5177 50.5058 91.4034 50.2677 91.0291C50.0297 90.6548 50.1357 90.1587 50.5059 89.9144C51.5824 89.2041 51.6494 88.23 51.4046 87.7637C51.287 87.5399 51.0855 87.3799 50.7761 87.3409C50.4463 87.2994 49.9062 87.3885 49.1629 87.879C47.5337 88.954 45.6932 88.8765 44.157 88.4283C43.0037 88.0918 41.9576 87.5305 41.1752 86.9949C35.9377 94.2606 35.2364 104.337 41.496 110.245C45.2007 113.741 50.5839 112.805 56.2871 109.695C61.922 106.622 67.4693 101.622 71.066 97.7992C72.2787 96.5104 72.9585 93.9864 72.7386 91.2886C72.5205 88.612 71.436 86.0249 69.4448 84.5768C65.3761 81.6179 58.9469 78.4444 52.5286 79.4506Z" fill="black"/>
<path d="M60.8234 101.123C61.1943 101.685 61.0393 102.441 60.4772 102.812C59.9151 103.183 59.1589 103.028 58.788 102.466C58.4171 101.904 58.5721 101.148 59.1342 100.777C59.6962 100.406 60.4525 100.561 60.8234 101.123Z" fill="black"/>
<path fill-rule="evenodd" clip-rule="evenodd" d="M47.0792 100.039C47.3324 99.6681 47.8382 99.5728 48.2089 99.826C49.542 100.736 51.3365 99.5524 51.0238 97.9686C50.9368 97.5282 51.2234 97.1007 51.6638 97.0137C52.1042 96.9268 52.5317 97.2133 52.6187 97.6537C53.2133 100.665 49.8268 102.9 47.292 101.168C46.9213 100.915 46.826 100.409 47.0792 100.039Z" fill="black"/>
<path fill-rule="evenodd" clip-rule="evenodd" d="M55.2208 94.6667C55.474 94.296 55.9798 94.2007 56.3505 94.4539C57.6836 95.3644 59.4781 94.1803 59.1654 92.5966C59.0784 92.1561 59.3649 91.7286 59.8054 91.6416C60.2458 91.5547 60.6733 91.8412 60.7603 92.2816C61.3549 95.2931 57.9684 97.5276 55.4336 95.7964C55.0629 95.5432 54.9676 95.0374 55.2208 94.6667Z" fill="black"/>
<path d="M70.5712 155.249L64.8813 145.495L75.4485 136.553L81.9513 156.874C80.3255 159.584 75.1232 165.166 67.3198 165.816C59.5165 166.466 66.236 159.042 70.5712 155.249Z" fill="white"/>
<path fill-rule="evenodd" clip-rule="evenodd" d="M75.6727 135.772C75.9336 135.847 76.1399 136.047 76.2227 136.305L82.7255 156.627C82.7967 156.849 82.7686 157.092 82.6483 157.293C80.9385 160.142 75.5359 165.947 67.3873 166.626C66.3639 166.711 65.5117 166.671 64.8315 166.489C64.1427 166.305 63.5703 165.957 63.2298 165.392C62.8929 164.832 62.866 164.197 62.9776 163.607C63.0888 163.02 63.3487 162.407 63.6826 161.805C64.9026 159.603 67.4376 156.973 69.5336 155.083L64.1791 145.904C63.9803 145.563 64.055 145.129 64.3562 144.874L74.9234 135.933C75.1307 135.757 75.4117 135.697 75.6727 135.772ZM65.9272 145.674L71.2733 154.839C71.4696 155.176 71.3996 155.604 71.1065 155.861C68.9481 157.749 66.2778 160.476 65.1045 162.593C64.8151 163.115 64.6416 163.557 64.575 163.909C64.5088 164.259 64.5597 164.449 64.6225 164.553C64.6816 164.651 64.8306 164.806 65.2511 164.919C65.68 165.033 66.3248 165.083 67.2523 165.006C74.4251 164.408 79.3261 159.429 81.0622 156.763L75.045 137.959L65.9272 145.674Z" fill="black"/>
<path d="M98.5164 127.652L88.9236 121.694L79.6928 132.009L99.826 139.073C102.58 137.523 108.303 132.477 109.17 124.695C110.036 116.912 102.428 123.423 98.5164 127.652Z" fill="white"/>
<path fill-rule="evenodd" clip-rule="evenodd" d="M78.9056 132.211C78.9732 132.474 79.1676 132.686 79.4237 132.776L99.5569 139.84C99.7776 139.917 100.021 139.896 100.225 139.781C103.121 138.151 109.073 132.911 109.977 124.784C110.091 123.764 110.075 122.911 109.912 122.226C109.747 121.532 109.415 120.95 108.859 120.594C108.309 120.242 107.675 120.198 107.082 120.293C106.492 120.388 105.872 120.631 105.261 120.948C103.026 122.106 100.327 124.567 98.3797 126.61L89.3525 121.003C89.0173 120.795 88.581 120.858 88.3179 121.152L79.0871 131.467C78.9061 131.669 78.838 131.949 78.9056 132.211ZM89.0744 122.744L98.0875 128.342C98.4184 128.548 98.8485 128.49 99.113 128.204C101.061 126.099 103.86 123.505 106.009 122.391C106.539 122.116 106.986 121.955 107.34 121.898C107.692 121.841 107.88 121.898 107.982 121.963C108.079 122.025 108.229 122.178 108.33 122.602C108.433 123.034 108.465 123.68 108.362 124.605C107.565 131.758 102.452 136.519 99.7393 138.181L81.1096 131.645L89.0744 122.744Z" fill="black"/>
<path d="M141.289 147.966C141.289 144.374 138.378 141.463 134.787 141.463H110.815C107.224 141.463 104.313 144.374 104.313 147.966V148.986C104.313 152.577 107.224 155.489 110.815 155.489H134.787C138.378 155.489 141.289 152.577 141.289 148.986V147.966Z" fill="#E5E5E5"/>
<path fill-rule="evenodd" clip-rule="evenodd" d="M142.102 147.966C142.102 143.925 138.827 140.65 134.787 140.65H110.815C106.775 140.65 103.5 143.925 103.5 147.966V148.986C103.5 153.026 106.775 156.301 110.815 156.301H134.787C138.827 156.301 142.102 153.026 142.102 148.986V147.966ZM134.787 142.276C137.929 142.276 140.477 144.823 140.477 147.966V148.986C140.477 152.128 137.929 154.676 134.787 154.676H110.815C107.673 154.676 105.126 152.128 105.126 148.986V147.966C105.126 144.823 107.673 142.276 110.815 142.276H134.787Z" fill="black"/>
<path d="M103.038 143.089C103.038 142.191 102.31 141.463 101.412 141.463H77.8871C76.9892 141.463 76.2614 142.191 76.2614 143.089V148.986C76.2614 152.577 79.1728 155.489 82.7642 155.489H96.5348C100.126 155.489 103.038 152.577 103.038 148.986V143.089Z" fill="#E5E5E5"/>
<path fill-rule="evenodd" clip-rule="evenodd" d="M103.85 143.089C103.85 141.742 102.759 140.65 101.412 140.65H77.887C76.5403 140.65 75.4485 141.742 75.4485 143.089V148.986C75.4485 153.026 78.7238 156.301 82.7641 156.301H96.5348C100.575 156.301 103.85 153.026 103.85 148.986V143.089ZM101.412 142.276C101.861 142.276 102.225 142.64 102.225 143.089V148.986C102.225 152.128 99.6773 154.676 96.5348 154.676H82.7641C79.6217 154.676 77.0742 152.128 77.0742 148.986V143.089C77.0742 142.64 77.4381 142.276 77.887 142.276H101.412Z" fill="black"/>
<path d="M119.613 139.837C119.613 140.735 118.886 141.463 117.988 141.463H109.764C108.866 141.463 108.138 140.735 108.138 139.837V131.613C108.138 130.715 108.866 129.987 109.764 129.987H117.988C118.886 129.987 119.613 130.715 119.613 131.613V139.837Z" fill="#E5E5E5"/>
<path fill-rule="evenodd" clip-rule="evenodd" d="M120.426 139.837C120.426 141.184 119.334 142.276 117.988 142.276H109.764C108.417 142.276 107.325 141.184 107.325 139.837V131.613C107.325 130.266 108.417 129.175 109.764 129.175H117.988C119.334 129.175 120.426 130.266 120.426 131.613V139.837ZM117.988 140.65C118.437 140.65 118.801 140.286 118.801 139.837V131.613C118.801 131.164 118.437 130.8 117.988 130.8H109.764C109.315 130.8 108.951 131.164 108.951 131.613V139.837C108.951 140.286 109.315 140.65 109.764 140.65H117.988Z" fill="black"/>
<path d="M122.163 129.35C122.163 130.406 121.307 131.262 120.251 131.262H107.5C106.444 131.262 105.588 130.406 105.588 129.35C105.588 128.294 106.444 127.437 107.5 127.437H120.251C121.307 127.437 122.163 128.294 122.163 129.35Z" fill="#E5E5E5"/>
<path fill-rule="evenodd" clip-rule="evenodd" d="M122.976 129.35C122.976 130.855 121.756 132.075 120.251 132.075H107.5C105.995 132.075 104.775 130.855 104.775 129.35C104.775 127.845 105.995 126.624 107.5 126.624H120.251C121.756 126.624 122.976 127.845 122.976 129.35ZM120.251 130.45C120.858 130.45 121.351 129.957 121.351 129.35C121.351 128.742 120.858 128.25 120.251 128.25H107.5C106.893 128.25 106.401 128.742 106.401 129.35C106.401 129.957 106.893 130.45 107.5 130.45H120.251Z" fill="black"/>
<path d="M128.539 155.489C128.539 157.601 130.251 159.314 132.364 159.314C134.477 159.314 136.189 157.601 136.189 155.489C136.189 153.376 134.477 151.663 132.364 151.663C130.251 151.663 128.539 153.376 128.539 155.489Z" fill="#E5E5E5"/>
<path fill-rule="evenodd" clip-rule="evenodd" d="M132.364 156.062C132.047 156.062 131.79 155.806 131.79 155.489C131.79 155.172 132.047 154.915 132.364 154.915C132.681 154.915 132.938 155.172 132.938 155.489C132.938 155.806 132.681 156.062 132.364 156.062ZM132.364 159.314C130.251 159.314 128.539 157.601 128.539 155.489C128.539 153.376 130.251 151.663 132.364 151.663C134.477 151.663 136.189 153.376 136.189 155.489C136.189 157.601 134.477 159.314 132.364 159.314Z" fill="black"/>
<path d="M118.338 155.489C118.338 157.601 120.051 159.314 122.163 159.314C124.276 159.314 125.989 157.601 125.989 155.489C125.989 153.376 124.276 151.663 122.163 151.663C120.051 151.663 118.338 153.376 118.338 155.489Z" fill="#E5E5E5"/>
<path fill-rule="evenodd" clip-rule="evenodd" d="M122.163 156.062C121.847 156.062 121.59 155.806 121.59 155.489C121.59 155.172 121.847 154.915 122.163 154.915C122.48 154.915 122.737 155.172 122.737 155.489C122.737 155.806 122.48 156.062 122.163 156.062ZM122.163 159.314C120.051 159.314 118.338 157.601 118.338 155.489C118.338 153.376 120.051 151.663 122.163 151.663C124.276 151.663 125.989 153.376 125.989 155.489C125.989 157.601 124.276 159.314 122.163 159.314Z" fill="black"/>
<path d="M90.287 155.489C90.287 157.601 91.9996 159.314 94.1122 159.314C96.2248 159.314 97.9374 157.601 97.9374 155.489C97.9374 153.376 96.2248 151.663 94.1122 151.663C91.9996 151.663 90.287 153.376 90.287 155.489Z" fill="#E5E5E5"/>
<path fill-rule="evenodd" clip-rule="evenodd" d="M94.1122 156.062C93.7953 156.062 93.5384 155.806 93.5384 155.489C93.5384 155.172 93.7953 154.915 94.1122 154.915C94.4291 154.915 94.686 155.172 94.686 155.489C94.686 155.806 94.4291 156.062 94.1122 156.062ZM94.1122 159.314C91.9996 159.314 90.287 157.601 90.287 155.489C90.287 153.376 91.9996 151.663 94.1122 151.663C96.2248 151.663 97.9374 153.376 97.9374 155.489C97.9374 157.601 96.2248 159.314 94.1122 159.314Z" fill="black"/>
<path d="M108.138 155.489C108.138 157.601 109.85 159.314 111.963 159.314C114.076 159.314 115.788 157.601 115.788 155.489C115.788 153.376 114.076 151.663 111.963 151.663C109.85 151.663 108.138 153.376 108.138 155.489Z" fill="#E5E5E5"/>
<path fill-rule="evenodd" clip-rule="evenodd" d="M111.963 156.062C111.646 156.062 111.389 155.806 111.389 155.489C111.389 155.172 111.646 154.915 111.963 154.915C112.28 154.915 112.537 155.172 112.537 155.489C112.537 155.806 112.28 156.062 111.963 156.062ZM111.963 159.314C109.85 159.314 108.138 157.601 108.138 155.489C108.138 153.376 109.85 151.663 111.963 151.663C114.076 151.663 115.788 153.376 115.788 155.489C115.788 157.601 114.076 159.314 111.963 159.314Z" fill="black"/>
<path d="M80.0865 155.489C80.0865 157.601 81.7991 159.314 83.9117 159.314C86.0243 159.314 87.7369 157.601 87.7369 155.489C87.7369 153.376 86.0243 151.663 83.9117 151.663C81.7991 151.663 80.0865 153.376 80.0865 155.489Z" fill="#E5E5E5"/>
<path fill-rule="evenodd" clip-rule="evenodd" d="M83.9117 156.062C83.5948 156.062 83.3379 155.806 83.3379 155.489C83.3379 155.172 83.5948 154.915 83.9117 154.915C84.2286 154.915 84.4855 155.172 84.4855 155.489C84.4855 155.806 84.2286 156.062 83.9117 156.062ZM83.9117 159.314C81.7991 159.314 80.0865 157.601 80.0865 155.489C80.0865 153.376 81.7991 151.663 83.9117 151.663C86.0243 151.663 87.7369 153.376 87.7369 155.489C87.7369 157.601 86.0243 159.314 83.9117 159.314Z" fill="black"/>
<path d="M110.688 137C110.688 138.761 112.115 140.188 113.876 140.188C115.636 140.188 117.063 138.761 117.063 137C117.063 135.24 115.636 133.812 113.876 133.812C112.115 133.812 110.688 135.24 110.688 137Z" fill="#E5E5E5"/>
<path fill-rule="evenodd" clip-rule="evenodd" d="M113.876 138.562C113.013 138.562 112.314 137.863 112.314 137C112.314 136.138 113.013 135.438 113.876 135.438C114.738 135.438 115.438 136.138 115.438 137C115.438 137.863 114.738 138.562 113.876 138.562ZM113.876 140.188C112.115 140.188 110.688 138.761 110.688 137C110.688 135.24 112.115 133.812 113.876 133.812C115.636 133.812 117.063 135.24 117.063 137C117.063 138.761 115.636 140.188 113.876 140.188Z" fill="black"/>
</svg>
